<mxfile host="app.diagrams.net" modified="2021-02-03T13:29:41.765Z" agent="5.0 (Macintosh; Intel Mac OS X 10_15_6) AppleWebKit/605.1.15 (KHTML, like Gecko) Version/13.1.2 Safari/605.1.15" etag="tBER8bq-x98beDht9sqg" version="14.2.9" type="github">
  <diagram id="g1Nhc_Od7sMw9TaJMXQT" name="Page-1">
    <mxGraphModel dx="1082" dy="735" grid="1" gridSize="10" guides="1" tooltips="1" connect="1" arrows="1" fold="1" page="1" pageScale="1" pageWidth="827" pageHeight="1169" math="0" shadow="0">
      <root>
        <mxCell id="0" />
        <mxCell id="1" parent="0" />
        <mxCell id="4du3SJc7lhI9T9KNKfRj-1" value="Test Template" style="text;html=1;align=center;verticalAlign=middle;resizable=0;points=[];autosize=1;" vertex="1" parent="1">
          <mxGeometry x="360" y="60" width="90" height="20" as="geometry" />
        </mxCell>
        <mxCell id="4du3SJc7lhI9T9KNKfRj-8" style="edgeStyle=orthogonalEdgeStyle;rounded=0;orthogonalLoop=1;jettySize=auto;html=1;" edge="1" parent="1" source="4du3SJc7lhI9T9KNKfRj-3" target="4du3SJc7lhI9T9KNKfRj-4">
          <mxGeometry relative="1" as="geometry" />
        </mxCell>
        <mxCell id="4du3SJc7lhI9T9KNKfRj-9" style="edgeStyle=orthogonalEdgeStyle;rounded=0;orthogonalLoop=1;jettySize=auto;html=1;entryX=0.456;entryY=-0.021;entryDx=0;entryDy=0;entryPerimeter=0;" edge="1" parent="1" source="4du3SJc7lhI9T9KNKfRj-3" target="4du3SJc7lhI9T9KNKfRj-5">
          <mxGeometry relative="1" as="geometry" />
        </mxCell>
        <mxCell id="4du3SJc7lhI9T9KNKfRj-10" style="edgeStyle=orthogonalEdgeStyle;rounded=0;orthogonalLoop=1;jettySize=auto;html=1;" edge="1" parent="1" source="4du3SJc7lhI9T9KNKfRj-3" target="4du3SJc7lhI9T9KNKfRj-7">
          <mxGeometry relative="1" as="geometry" />
        </mxCell>
        <mxCell id="4du3SJc7lhI9T9KNKfRj-3" value="Test Template&lt;br&gt;&amp;nbsp;Name&lt;br&gt;created_by&lt;br&gt;created_at" style="rounded=0;whiteSpace=wrap;html=1;" vertex="1" parent="1">
          <mxGeometry x="346" y="50" width="120" height="60" as="geometry" />
        </mxCell>
        <mxCell id="4du3SJc7lhI9T9KNKfRj-21" value="" style="edgeStyle=orthogonalEdgeStyle;rounded=0;orthogonalLoop=1;jettySize=auto;html=1;" edge="1" parent="1" source="4du3SJc7lhI9T9KNKfRj-4" target="4du3SJc7lhI9T9KNKfRj-19">
          <mxGeometry relative="1" as="geometry" />
        </mxCell>
        <mxCell id="4du3SJc7lhI9T9KNKfRj-34" style="edgeStyle=orthogonalEdgeStyle;rounded=0;orthogonalLoop=1;jettySize=auto;html=1;entryX=0.444;entryY=-0.01;entryDx=0;entryDy=0;entryPerimeter=0;" edge="1" parent="1" source="4du3SJc7lhI9T9KNKfRj-4" target="4du3SJc7lhI9T9KNKfRj-20">
          <mxGeometry relative="1" as="geometry" />
        </mxCell>
        <mxCell id="4du3SJc7lhI9T9KNKfRj-4" value="Section1:&lt;br&gt;Name&lt;br&gt;Order&lt;br&gt;(mcq)" style="ellipse;whiteSpace=wrap;html=1;" vertex="1" parent="1">
          <mxGeometry x="15" y="160" width="140" height="80" as="geometry" />
        </mxCell>
        <mxCell id="4du3SJc7lhI9T9KNKfRj-27" style="edgeStyle=orthogonalEdgeStyle;rounded=0;orthogonalLoop=1;jettySize=auto;html=1;exitX=0.5;exitY=1;exitDx=0;exitDy=0;entryX=0.617;entryY=-0.021;entryDx=0;entryDy=0;entryPerimeter=0;" edge="1" parent="1" source="4du3SJc7lhI9T9KNKfRj-5" target="4du3SJc7lhI9T9KNKfRj-25">
          <mxGeometry relative="1" as="geometry">
            <Array as="points">
              <mxPoint x="420" y="310" />
              <mxPoint x="367" y="310" />
            </Array>
          </mxGeometry>
        </mxCell>
        <mxCell id="4du3SJc7lhI9T9KNKfRj-28" style="edgeStyle=orthogonalEdgeStyle;rounded=0;orthogonalLoop=1;jettySize=auto;html=1;entryX=0.56;entryY=0;entryDx=0;entryDy=0;entryPerimeter=0;" edge="1" parent="1" source="4du3SJc7lhI9T9KNKfRj-5" target="4du3SJc7lhI9T9KNKfRj-26">
          <mxGeometry relative="1" as="geometry" />
        </mxCell>
        <mxCell id="4du3SJc7lhI9T9KNKfRj-5" value="section2&lt;br&gt;Name&lt;br&gt;Order&lt;br&gt;(Coding)" style="ellipse;whiteSpace=wrap;html=1;" vertex="1" parent="1">
          <mxGeometry x="360" y="160" width="120" height="80" as="geometry" />
        </mxCell>
        <mxCell id="4du3SJc7lhI9T9KNKfRj-7" value="section3" style="ellipse;whiteSpace=wrap;html=1;" vertex="1" parent="1">
          <mxGeometry x="690" y="160" width="120" height="80" as="geometry" />
        </mxCell>
        <mxCell id="4du3SJc7lhI9T9KNKfRj-11" value="1" style="text;html=1;align=center;verticalAlign=middle;resizable=0;points=[];autosize=1;" vertex="1" parent="1">
          <mxGeometry x="290" y="50" width="20" height="20" as="geometry" />
        </mxCell>
        <mxCell id="4du3SJc7lhI9T9KNKfRj-12" value="M" style="text;html=1;align=center;verticalAlign=middle;resizable=0;points=[];autosize=1;" vertex="1" parent="1">
          <mxGeometry x="145" y="120" width="30" height="20" as="geometry" />
        </mxCell>
        <mxCell id="4du3SJc7lhI9T9KNKfRj-13" value="1" style="text;html=1;align=center;verticalAlign=middle;resizable=0;points=[];autosize=1;" vertex="1" parent="1">
          <mxGeometry x="410" y="110" width="20" height="20" as="geometry" />
        </mxCell>
        <mxCell id="4du3SJc7lhI9T9KNKfRj-14" value="M" style="text;html=1;align=center;verticalAlign=middle;resizable=0;points=[];autosize=1;" vertex="1" parent="1">
          <mxGeometry x="385" y="140" width="30" height="20" as="geometry" />
        </mxCell>
        <mxCell id="4du3SJc7lhI9T9KNKfRj-19" value="mcq1 &lt;br&gt;tag:apt&lt;br&gt;&amp;nbsp;difficulty: easy&lt;br&gt;&amp;nbsp;marks :10" style="ellipse;whiteSpace=wrap;html=1;" vertex="1" parent="1">
          <mxGeometry y="300" width="125" height="80" as="geometry" />
        </mxCell>
        <mxCell id="4du3SJc7lhI9T9KNKfRj-20" value="mcq2 &lt;br&gt;tag:DS&lt;br&gt;&amp;nbsp;difficulty: easy&lt;br&gt;&amp;nbsp;marks :20" style="ellipse;whiteSpace=wrap;html=1;" vertex="1" parent="1">
          <mxGeometry x="130" y="300" width="125" height="80" as="geometry" />
        </mxCell>
        <mxCell id="4du3SJc7lhI9T9KNKfRj-25" value="coding1 &lt;br&gt;tag:DP&lt;br&gt;&amp;nbsp;difficulty: Medium&lt;br&gt;&amp;nbsp;marks :40" style="ellipse;whiteSpace=wrap;html=1;" vertex="1" parent="1">
          <mxGeometry x="290" y="380" width="125" height="80" as="geometry" />
        </mxCell>
        <mxCell id="4du3SJc7lhI9T9KNKfRj-26" value="coding2&amp;nbsp;&lt;br&gt;tag:Array&lt;br&gt;&amp;nbsp;difficulty: Easy&lt;br&gt;&amp;nbsp;marks :20" style="ellipse;whiteSpace=wrap;html=1;" vertex="1" parent="1">
          <mxGeometry x="420" y="380" width="125" height="80" as="geometry" />
        </mxCell>
        <mxCell id="4du3SJc7lhI9T9KNKfRj-30" value="M" style="text;html=1;align=center;verticalAlign=middle;resizable=0;points=[];autosize=1;" vertex="1" parent="1">
          <mxGeometry x="190" y="280" width="30" height="20" as="geometry" />
        </mxCell>
        <mxCell id="4du3SJc7lhI9T9KNKfRj-31" value="1" style="text;html=1;align=center;verticalAlign=middle;resizable=0;points=[];autosize=1;" vertex="1" parent="1">
          <mxGeometry x="430" y="240" width="20" height="20" as="geometry" />
        </mxCell>
        <mxCell id="4du3SJc7lhI9T9KNKfRj-32" value="M" style="text;html=1;align=center;verticalAlign=middle;resizable=0;points=[];autosize=1;" vertex="1" parent="1">
          <mxGeometry x="365" y="350" width="30" height="20" as="geometry" />
        </mxCell>
        <mxCell id="4du3SJc7lhI9T9KNKfRj-33" value="Test Cases Marks on the basis of %" style="text;html=1;align=center;verticalAlign=middle;resizable=0;points=[];autosize=1;" vertex="1" parent="1">
          <mxGeometry x="290" y="470" width="210" height="20" as="geometry" />
        </mxCell>
        <mxCell id="4du3SJc7lhI9T9KNKfRj-35" value="1" style="text;html=1;align=center;verticalAlign=middle;resizable=0;points=[];autosize=1;" vertex="1" parent="1">
          <mxGeometry x="90" y="250" width="20" height="20" as="geometry" />
        </mxCell>
        <mxCell id="4du3SJc7lhI9T9KNKfRj-37" value="M" style="text;html=1;align=center;verticalAlign=middle;resizable=0;points=[];autosize=1;" vertex="1" parent="1">
          <mxGeometry x="70" y="280" width="30" height="20" as="geometry" />
        </mxCell>
        <mxCell id="4du3SJc7lhI9T9KNKfRj-38" value="M" style="text;html=1;align=center;verticalAlign=middle;resizable=0;points=[];autosize=1;" vertex="1" parent="1">
          <mxGeometry x="490" y="360" width="30" height="20" as="geometry" />
        </mxCell>
      </root>
    </mxGraphModel>
  </diagram>
</mxfile>
